<?xml version="1.0" encoding="utf-8"?>
<!-- Generator: Adobe Illustrator 24.0.1, SVG Export Plug-In . SVG Version: 6.00 Build 0)  -->
<svg version="1.1" id="Capa_1" xmlns="http://www.w3.org/2000/svg" xmlns:xlink="http://www.w3.org/1999/xlink" x="0px" y="0px" width="180px" height="80px" viewBox="0 0 180 80" enable-background="new 0 0 180 80" xml:space="preserve">
    <path fill="#E8EAED" d="M90.4,75.97l-58.16,3.12c-1.44,0.08-2.66-1.02-2.74-2.46L26.34,17.7c-0.07-1.27,0.91-2.36,2.18-2.43
	l58.75-3.15c1.27-0.07,2.36,0.91,2.43,2.18l3.16,58.92C92.94,74.66,91.84,75.89,90.4,75.97z"></path>
    <path fill="#FFFFFF" d="M28.855,17.702l57.569-3.09l2.199,40.973l-57.569,3.09L28.855,17.702z"></path>
    <path fill="#4285F4" d="M79.47,41.74l-5.31-5.98L73.23,18.3l-27.9,1.49c-1.68,0.09-2.97,1.53-2.88,3.21l1.87,34.97l30.95-1.65
	l-0.74-13.89l4.76-0.25C79.49,42.16,79.6,41.91,79.47,41.74z"></path>
    <radialGradient id="SVGID_1_" cx="10.3555" cy="151.0748" r="33.9247" gradientTransform="matrix(0.9986 -0.0529 0.0529 0.9986 21.1543 -133.7413)" gradientUnits="userSpaceOnUse">
        <stop offset="0" style="stop-color:#FFFFFF"></stop>
        <stop offset="0.9327" style="stop-color:#FFFFFF;stop-opacity:0.0673"></stop>
        <stop offset="1" style="stop-color:#FFFFFF;stop-opacity:0"></stop>
    </radialGradient>
    <path opacity="0.4" fill="url(#SVGID_1_)" enable-background="new    " d="M79.47,41.74l-5.31-5.98L73.23,18.3l-27.9,1.49
	c-1.68,0.09-2.97,1.53-2.88,3.21l1.87,34.97l30.95-1.65l-0.74-13.89l4.76-0.25C79.49,42.16,79.6,41.91,79.47,41.74z"></path>
    <rect x="49.459" y="19.591" transform="matrix(0.9985 -0.0549 0.0549 0.9985 -2.0457 2.7804)" fill="#FFFFFF" width="0.251" height="38.067"></rect>
    <polygon fill="#FFFFFF" points="69.646,43.483 69.395,43.497 69.537,46.15 58.334,46.743 58.186,43.923 57.935,43.937 
	58.634,57.197 58.885,57.184 58.348,46.994 64.344,46.677 64.888,56.876 65.112,56.864 64.568,46.665 69.55,46.401 70.095,56.587 
	70.346,56.573 "></polygon>
    <path fill="#EAEAEA" d="M81.504,42.281l0.104,0.785c0.055,0.495-0.292,0.915-0.774,0.939H80.83
	c-0.482,0.024-0.917-0.358-0.971-0.853c0.055,0.495-0.292,0.915-0.774,0.939h-0.004c-0.482,0.024-0.917-0.358-0.971-0.853
	c0.055,0.495-0.292,0.915-0.774,0.939h-0.004c-0.482,0.024-0.917-0.358-0.971-0.853c0.055,0.495-0.292,0.915-0.774,0.939h-0.004
	c-0.482,0.024-0.917-0.358-0.971-0.853c0.055,0.495-0.292,0.915-0.774,0.939h-0.004c-0.482,0.024-0.917-0.358-0.971-0.853
	c0.055,0.495-0.292,0.915-0.774,0.939h-0.004c-0.482,0.024-0.917-0.358-0.971-0.853c0.055,0.495-0.292,0.915-0.774,0.939h-0.004
	c-0.482,0.024-0.917-0.358-0.971-0.853c0.055,0.495-0.292,0.915-0.774,0.939h-0.004c-0.482,0.024-0.917-0.358-0.971-0.853
	c0.055,0.495-0.292,0.915-0.774,0.939h-0.004c-0.482,0.024-0.917-0.358-0.971-0.853c0.055,0.495-0.292,0.915-0.774,0.939h-0.004
	c-0.482,0.024-0.917-0.358-0.971-0.853c0.055,0.495-0.292,0.915-0.774,0.939H63.34c-0.482,0.024-0.917-0.358-0.971-0.853
	c0.055,0.495-0.292,0.915-0.774,0.939h-0.004c-0.482,0.024-0.917-0.358-0.971-0.853c0.055,0.495-0.292,0.915-0.774,0.939h-0.004
	c-0.482,0.024-0.917-0.358-0.971-0.853c0.055,0.495-0.292,0.915-0.774,0.939h-0.004c-0.482,0.024-0.917-0.358-0.971-0.853
	l-0.086-0.785L81.504,42.281z"></path>
    <path fill="#EAEAEA" d="M81.523,42.297l-1.476,0.056l-23.009,1.135l-7.165-7.769c-0.219-0.315-0.037-0.732,0.328-0.75l23.881-1.178
	l7.44,8.489"></path>
    <polygon fill="#DADCE0" points="74.529,42.626 66.708,34.155 70.202,33.983 78.023,42.453 "></polygon>
    <polygon fill="#DADCE0" points="67.534,42.971 59.713,34.5 63.207,34.328 71.028,42.799 "></polygon>
    <polygon fill="#DADCE0" points="60.538,43.316 52.716,34.846 56.211,34.673 64.032,43.144 "></polygon>
    <path fill="#DADCE0" d="M60.538,43.316l0.089,0.804c0.064,0.485,0.493,0.857,0.968,0.834h0.004c0.482-0.024,0.828-0.444,0.774-0.939
	c0.055,0.495,0.489,0.877,0.971,0.853h0.004c0.468-0.023,0.807-0.421,0.776-0.898l-0.091-0.826L60.538,43.316z"></path>
    <path fill="#DADCE0" d="M67.534,42.971l0.089,0.804c0.064,0.485,0.493,0.857,0.968,0.834h0.004c0.482-0.024,0.828-0.444,0.774-0.939
	c0.055,0.495,0.489,0.877,0.971,0.853h0.004c0.468-0.023,0.807-0.421,0.776-0.898l-0.091-0.826L67.534,42.971z"></path>
    <path fill="#DADCE0" d="M74.528,42.626l0.089,0.804c0.064,0.485,0.493,0.857,0.968,0.834h0.004c0.482-0.024,0.828-0.444,0.774-0.939
	c0.055,0.495,0.489,0.877,0.971,0.853h0.004c0.468-0.023,0.807-0.421,0.776-0.898l-0.091-0.826L74.528,42.626z"></path>
    <linearGradient id="SVGID_2_" gradientUnits="userSpaceOnUse" x1="63.219" y1="172.1016" x2="64.2299" y2="182.4385" gradientTransform="matrix(1 0 0.0609 1 -5.8346 -138)">
        <stop offset="0" style="stop-color:#202124"></stop>
        <stop offset="1" style="stop-color:#202124;stop-opacity:0"></stop>
    </linearGradient>
    <path fill="url(#SVGID_2_)" d="M81.609,43.066c0.055,0.495-0.292,0.915-0.774,0.939h-0.004c-0.482,0.024-0.917-0.358-0.971-0.853
	c0.055,0.495-0.292,0.915-0.774,0.939h-0.004c-0.482,0.024-0.917-0.358-0.971-0.853c0.055,0.495-0.292,0.915-0.774,0.939h-0.004
	c-0.482,0.024-0.917-0.358-0.971-0.853c0.055,0.495-0.292,0.915-0.774,0.939h-0.004c-0.482,0.024-0.917-0.358-0.971-0.853
	c0.055,0.495-0.292,0.915-0.774,0.939h-0.004c-0.482,0.024-0.917-0.358-0.971-0.853c0.055,0.495-0.292,0.915-0.774,0.939h-0.004
	c-0.482,0.024-0.917-0.358-0.971-0.853c0.055,0.495-0.292,0.915-0.774,0.939h-0.004c-0.482,0.024-0.917-0.358-0.971-0.853
	c0.055,0.495-0.292,0.915-0.774,0.939h-0.004c-0.482,0.024-0.917-0.358-0.971-0.853c0.055,0.495-0.292,0.915-0.774,0.939h-0.004
	c-0.482,0.024-0.917-0.358-0.971-0.853c0.055,0.495-0.292,0.915-0.774,0.939H65.09c-0.482,0.024-0.917-0.358-0.971-0.853
	c0.055,0.495-0.292,0.915-0.774,0.939h-0.004c-0.482,0.024-0.917-0.358-0.971-0.853c0.055,0.495-0.292,0.915-0.774,0.939h-0.004
	c-0.482,0.024-0.917-0.358-0.971-0.853c0.055,0.495-0.292,0.915-0.774,0.939h-0.004c-0.482,0.024-0.917-0.358-0.971-0.853
	c0.055,0.495-0.292,0.915-0.774,0.939h-0.004c-0.482,0.024-0.917-0.358-0.971-0.853l-0.086-0.785l24.483-1.208L81.609,43.066z"></path>
    <path fill="#DADCE0" d="M56.77,57.31c0,0-1.41-3.51-5.29-3.3c-1.09,0.06-2.12,0.4-3.04,0.86c-1.07-1.49-3.04-2.97-6.64-2.78
	c-7.02,0.37-7.89,6.43-7.89,6.43L56.77,57.31z"></path>
    <path fill="#FFFFFF" d="M69.8,27.82L54.34,33.1c-0.18,0.06-0.34-0.04-0.35-0.23l-0.36-6.79c-0.01-0.19,0.13-0.39,0.32-0.45
	l15.46-5.27c0.18-0.06,0.34,0.04,0.35,0.23l0.36,6.79C70.13,27.56,69.99,27.76,69.8,27.82z"></path>
    <linearGradient id="SVGID_3_" gradientUnits="userSpaceOnUse" x1="32.1747" y1="167.2768" x2="32.1747" y2="157.839" gradientTransform="matrix(0.9986 -0.0529 0.0529 0.9986 21.1543 -133.7413)">
        <stop offset="0.1061" style="stop-color:#202124;stop-opacity:0.1"></stop>
        <stop offset="1" style="stop-color:#202124;stop-opacity:0"></stop>
    </linearGradient>
    <path fill="url(#SVGID_3_)" d="M69.8,27.82L54.34,33.1c-0.18,0.06-0.34-0.04-0.35-0.23l-0.36-6.79c-0.01-0.19,0.13-0.39,0.32-0.45
	l15.46-5.27c0.18-0.06,0.34,0.04,0.35,0.23l0.36,6.79C70.13,27.56,69.99,27.76,69.8,27.82z"></path>
    <rect x="62.584" y="50.757" transform="matrix(0.9986 -0.0528 0.0528 0.9986 -2.655 3.3959)" fill="#4285F4" width="0.72" height="2.38"></rect>
    <rect x="64.914" y="50.627" transform="matrix(0.9986 -0.0528 0.0528 0.9986 -2.6449 3.5187)" fill="#4285F4" width="0.72" height="2.38"></rect>
    <path fill="#EAEAEA" d="M53.45,57.47l1.595-2.368c-0.08-0.06-0.16-0.121-0.236-0.176L53.08,57.5L53.45,57.47z"></path>
    <path fill="#EAEAEA" d="M52.24,57.53l-1.64-3.42c-0.1,0.02-0.2,0.04-0.29,0.06l1.62,3.38C51.93,57.55,52.24,57.53,52.24,57.53z"></path>
    <path fill="#EAEAEA" d="M37.09,53.58c1.22,1.33,2.74,3,4.13,4.54l0.38-0.02c-1.3-1.45-2.93-3.24-4.26-4.69
	C37.25,53.47,37.17,53.52,37.09,53.58z"></path>
    <path fill="#EAEAEA" d="M44.44,52.29l-1.41,5.74l0.31-0.02l1.38-5.65C44.63,52.33,44.54,52.31,44.44,52.29z"></path>
    <polygon fill="#EAEAEA" points="48.25,54.61 45.06,57.92 45.49,57.9 48.43,54.85 "></polygon>
    <linearGradient id="SVGID_4_" gradientUnits="userSpaceOnUse" x1="196.7327" y1="56.3589" x2="65.9165" y2="163.0144" gradientTransform="matrix(1 0 0 1 0 -96)">
        <stop offset="0" style="stop-color:#202124"></stop>
        <stop offset="1" style="stop-color:#202124;stop-opacity:0"></stop>
    </linearGradient>
    <path fill="url(#SVGID_4_)" d="M92.86,73.23L90.24,24.4c-22.63,15.94-37.09,26.14-61.2,43.12l46.01,9.27l15.34-0.82
	C91.84,75.89,92.94,74.66,92.86,73.23z"></path>
    <path fill="#E8EAED" d="M137.15,78.86L81.31,62.3c-1.38-0.41-2.16-1.86-1.76-3.24L96.33,2.5c0.36-1.22,1.65-1.92,2.87-1.55
	l56.41,16.73c1.22,0.36,1.92,1.65,1.55,2.87l-16.77,56.57C139.97,78.48,138.52,79.27,137.15,78.86z"></path>
    <path fill="#FFFFFF" d="M98.687,3.342l55.269,16.39l-11.665,39.335l-55.269-16.39L98.687,3.342z"></path>
    <path fill="#4285F4" d="M56.58,30.162l-0.061-0.204c0.027-0.008,2.035-0.624,2.951-2.115c-0.515-0.487-0.807-1.142-0.807-1.653
	c-0.006-0.646,0.337-0.896,0.66-0.913c0.347-0.021,0.749,0.237,0.792,0.683c0.067,0.713-0.091,1.323-0.372,1.838
	c0.157,0.131,0.333,0.244,0.526,0.33c0.564,0.255,1.455,0.361,2.5-0.567c0.592-0.527,0.979-1.021,1.223-1.458
	c-0.585-0.46-0.75-1.193-0.609-1.686c0.083-0.291,0.269-0.471,0.507-0.493c0.233-0.02,0.452,0.138,0.575,0.419
	c0.168,0.385,0.16,0.98-0.195,1.693c0.552,0.335,1.721,0.571,3.934-0.777l0.111,0.182c-2.288,1.395-3.54,1.145-4.146,0.784
	c-0.262,0.462-0.668,0.968-1.259,1.495c-0.882,0.783-1.851,0.998-2.729,0.603c-0.2-0.09-0.384-0.205-0.548-0.337
	C58.663,29.524,56.608,30.154,56.58,30.162z M59.359,25.489c-0.008,0-0.016,0-0.024,0.001c-0.291,0.016-0.462,0.277-0.458,0.699
	c0,0.44,0.258,1.019,0.704,1.461c0.248-0.473,0.384-1.027,0.323-1.67C59.874,25.68,59.603,25.489,59.359,25.489z M63.933,24.135
	c-0.008,0-0.015,0-0.022,0.001c-0.201,0.019-0.289,0.221-0.323,0.339c-0.116,0.404,0.024,1.034,0.504,1.434
	c0.324-0.676,0.3-1.201,0.178-1.48C64.189,24.245,64.062,24.135,63.933,24.135z"></path>
    <path fill="#FBBC04" d="M134.94,56.89l9.07-30.75l-33.47-9.87l-9.07,30.75"></path>
    <path fill="#FBBC04" d="M141.85,38.96l-0.24,0.84l-1.56-0.46l-0.11,0.36l1.56,0.46l-2.33,7.89l-1.74-0.51l-0.1,0.36l1.74,0.51
	l-0.26,0.87l4.56,1.34l3.04-10.31L141.85,38.96z"></path>
    <path fill="none" stroke="#FFFFFF" stroke-width="0.2277" stroke-miterlimit="10" d="M129.021,38.153l7.874,2.323l-3.596,12.19
	l-7.874-2.323L129.021,38.153z"></path>
    <path fill="none" stroke="#FFFFFF" stroke-width="0.2277" stroke-miterlimit="10" d="M115.51,51.16l3.8-12.88
	c0.45-1.52,2.1-2.37,3.68-1.9l0,0c1.59,0.47,2.51,2.08,2.06,3.6l-3.8,12.88"></path>
    <path fill="none" stroke="#FFFFFF" stroke-width="0.2277" stroke-miterlimit="10" d="M109.073,32.263l7.874,2.323l-3.596,12.19
	l-7.874-2.323L109.073,32.263z"></path>
    <path fill="none" stroke="#FFFFFF" stroke-width="0.2277" stroke-miterlimit="10" d="M143.49,27.89l-33.47-9.86"></path>
    <path fill="none" stroke="#FFFFFF" stroke-width="0.2277" stroke-miterlimit="10" d="M107.05,28.11l33.47,9.91"></path>
    <path fill="none" stroke="#FFFFFF" stroke-width="0.2515" stroke-miterlimit="10" d="M102.53,43.55l13.98,4.21"></path>
    <path fill="none" stroke="#FFFFFF" stroke-width="0.2277" stroke-miterlimit="10" d="M122.26,49.41l13.7,4.04"></path>
    <path fill="#FFFFFF" d="M109.996,18.112l33.473,9.873l-2.934,9.946l-33.473-9.873L109.996,18.112z"></path>
    <linearGradient id="SVGID_5_" gradientUnits="userSpaceOnUse" x1="128.7783" y1="113.4704" x2="123.8157" y2="128.358" gradientTransform="matrix(1 0 0 1 0 -96)">
        <stop offset="0.1061" style="stop-color:#202124;stop-opacity:0.1"></stop>
        <stop offset="1" style="stop-color:#202124;stop-opacity:0"></stop>
    </linearGradient>
    <path fill="url(#SVGID_5_)" d="M140.53,37.93l-33.47-9.87l2.93-9.94l33.48,9.87L140.53,37.93z"></path>
    <path fill="none" stroke="#FBBC04" stroke-width="0.2576" stroke-miterlimit="10" d="M109.31,24.96c0,0,8.77,0.65,9.42-2.1
	c0.42-1.8-6.8,2.9-1.56,4.51c4.1,1.26,8.02-2.68,7.89,0.06c-0.15,3.09,5.93,0.64,5.66,0.01c-0.37-0.85-5.28,1.78-2.51,3.62
	c2.77,1.85,9.22-3.96,9.91-0.51s2.21,2.73,2.21,2.73"></path>
    <ellipse transform="matrix(0.281 -0.9597 0.9597 0.281 43.9811 115.969)" fill="#F1F3F4" cx="99.387" cy="28.632" rx="10.39" ry="5.83"></ellipse>
    <line fill="none" stroke="#DADCE0" stroke-width="0.4557" stroke-linecap="round" stroke-miterlimit="10" x1="99.55" y1="28.1" x2="94.66" y2="44.79"></line>
    <line fill="none" stroke="#DADCE0" stroke-width="0.4557" stroke-linecap="round" stroke-miterlimit="10" x1="97.45" y1="35.29" x2="95.61" y2="29.38"></line>
</svg>
