<svg width="421" height="64" viewBox="0 0 421 64" fill="none" xmlns="http://www.w3.org/2000/svg">
<path fill-rule="evenodd" clip-rule="evenodd" d="M364.442 16.1352C355.989 16.1352 350.085 23.1191 350.085 33.1191C350.085 37.9569 351.505 41.966 354.191 44.7139C356.589 47.1662 359.924 48.5163 363.582 48.5163C372.072 48.5163 375.152 42.1041 375.895 40.1391L375.948 39.9966L374.944 39.4795L374.861 39.607C373.388 41.8878 370.617 43.2485 367.45 43.2485C365.022 43.2485 362.838 42.1824 361.299 40.2465C359.565 38.0616 358.648 34.8097 358.648 30.8401V30.3185H375.96V28.6288C375.96 25.3242 375.003 22.2914 373.264 20.0872C371.225 17.5012 368.175 16.1352 364.442 16.1352ZM368.198 28.1512L358.654 28.5206C358.925 20.6844 360.427 17.4836 363.818 17.4836C364.756 17.4836 365.515 17.7958 366.14 18.437C367.583 19.92 368.257 23.0989 368.198 28.1512Z" fill="black"/>
<path fill-rule="evenodd" clip-rule="evenodd" d="M0 4.38034L0.145031 4.40057C4.42388 4.97495 4.77108 7.36127 4.77108 10.1891V40.6845C4.77108 43.4772 4.42388 45.8354 0.145031 46.4097L0 46.43V47.6948H18.4084V46.4291L18.2625 46.4097C14.0161 45.8635 13.6988 43.7886 13.6988 40.6845V10.1891C13.6988 7.04726 14.0161 4.9468 18.2625 4.40057L18.4084 4.38122V3.11462H0V4.38034Z" fill="black"/>
<path fill-rule="evenodd" clip-rule="evenodd" d="M132.601 16.1352C129.788 16.1352 127.047 17.4273 124.232 20.0828V15.844L112.537 18.3737V19.3114H112.704C115.307 19.3114 115.915 19.7265 115.915 23.8192V56.9006C115.915 61.0804 115.303 62.0409 112.643 62.0409H112.476V63.3304H128.776V62.0409H128.609C125.214 62.0409 124.232 60.8878 124.232 56.9006V46.349C125.652 47.6728 127.78 48.4539 130.016 48.4539C138.2 48.4539 143.698 41.6037 143.698 31.4083C143.698 22.1304 139.341 16.1352 132.601 16.1352ZM127.995 45.8996C125.463 45.8996 124.232 44.7587 124.232 42.4111V21.578C125.156 20.9843 126.081 20.7073 127.135 20.7073C130.054 20.7073 134.951 22.3283 134.951 33.1798C134.951 38.6403 134.23 45.8996 127.995 45.8996Z" fill="black"/>
<path fill-rule="evenodd" clip-rule="evenodd" d="M85.3424 45.6999C82.2326 45.6999 80.9317 45.1537 80.9317 41.7743V19.0466C80.9317 9.67459 81.1198 1.47243 81.1216 1.39063L81.1269 1.1892L68.2991 3.12518V4.26248H68.4661C71.3966 4.26248 72.4865 5.48599 72.4865 8.77829L72.6694 18.2022C70.9993 16.794 69.0928 16.1352 66.702 16.1352C57.8446 16.1352 53.2097 24.7103 53.2097 33.1807C53.2097 37.9032 54.2636 41.8033 56.258 44.4606C58.2172 47.0729 61.0458 48.4539 64.436 48.4539C66.2977 48.4539 69.1543 48.0211 72.665 44.3585L72.5595 48.4064L85.5428 47.2225L85.5059 45.6999H85.3424ZM72.6763 42.8826C72.1577 43.1966 71.0511 43.5001 69.8346 43.5001C66.2405 43.5001 61.9563 41.4023 61.9563 31.4092C61.9563 19.9535 66.3152 18.2427 68.9126 18.2427C71.4097 18.2427 72.6763 19.7591 72.6763 22.7506V42.8826Z" fill="black"/>
<path fill-rule="evenodd" clip-rule="evenodd" d="M238.654 45.6999C235.543 45.6999 234.243 45.1537 234.243 41.7743V19.0466C234.243 9.67459 234.432 1.47243 234.433 1.39063L234.439 1.1892L221.611 3.12518V4.26248H221.778C224.708 4.26248 225.797 5.48599 225.798 8.77829L225.98 18.2022C224.311 16.794 222.404 16.1352 220.015 16.1352C211.156 16.1352 206.521 24.7103 206.521 33.1807C206.521 37.9032 207.575 41.8033 209.57 44.4606C211.53 47.0729 214.357 48.4539 217.748 48.4539C219.609 48.4539 222.466 48.0211 225.977 44.3585L225.871 48.4064L238.855 47.2225L238.818 45.6999H238.654ZM225.988 42.8826C225.469 43.1966 224.364 43.5001 223.146 43.5001C219.552 43.5001 215.268 41.4023 215.268 31.4092C215.268 19.9535 219.627 18.2427 222.225 18.2427C224.721 18.2427 225.988 19.7591 225.988 22.7506V42.8826Z" fill="black"/>
<path fill-rule="evenodd" clip-rule="evenodd" d="M99.914 16.1352C91.4609 16.1352 85.5568 23.1191 85.5568 33.1191C85.5568 37.9569 86.9772 41.966 89.6634 44.7139C92.0612 47.1662 95.3961 48.5163 99.0535 48.5163C107.544 48.5163 110.624 42.1041 111.366 40.1391L111.42 39.9966L110.415 39.4795L110.333 39.607C108.86 41.8878 106.09 43.2485 102.923 43.2485C100.494 43.2485 98.309 42.1824 96.7717 40.2465C95.0366 38.0616 94.1198 34.8097 94.1198 30.8401V30.3185H111.431V28.6288C111.431 25.3242 110.475 22.2914 108.736 20.0872C106.697 17.5012 103.646 16.1352 99.914 16.1352ZM103.67 28.1512L94.1259 28.5206C94.3975 20.6844 95.8988 17.4836 99.2907 17.4836C100.228 17.4836 100.987 17.7958 101.611 18.437C103.055 19.92 103.729 23.0989 103.67 28.1512Z" fill="black"/>
<path fill-rule="evenodd" clip-rule="evenodd" d="M160.808 16.1352C152.355 16.1352 146.451 23.1191 146.451 33.1191C146.451 37.9569 147.871 41.966 150.558 44.7139C152.955 47.1662 156.29 48.5163 159.948 48.5163C168.438 48.5163 171.519 42.1041 172.261 40.1391L172.314 39.9966L171.31 39.4795L171.228 39.607C169.754 41.8878 166.984 43.2485 163.816 43.2485C161.388 43.2485 159.204 42.1824 157.665 40.2465C155.931 38.0616 155.014 34.8097 155.014 30.8401V30.3185H172.326V28.6288C172.326 25.3242 171.369 22.2914 169.63 20.0872C167.591 17.5012 164.541 16.1352 160.808 16.1352ZM164.564 28.1512L155.02 28.5206C155.292 20.6844 156.793 17.4836 160.184 17.4836C161.122 17.4836 161.882 17.7958 162.506 18.437C163.95 19.9209 164.623 23.0989 164.564 28.1512Z" fill="black"/>
<path fill-rule="evenodd" clip-rule="evenodd" d="M253.226 16.1352C244.773 16.1352 238.869 23.1191 238.869 33.1191C238.869 37.9569 240.289 41.966 242.975 44.7139C245.373 47.1662 248.708 48.5163 252.366 48.5163C260.856 48.5163 263.936 42.1041 264.678 40.1391L264.732 39.9966L263.727 39.4795L263.645 39.607C262.172 41.8878 259.402 43.2485 256.235 43.2485C253.805 43.2485 251.621 42.1824 250.084 40.2465C248.348 38.0616 247.431 34.8097 247.431 30.8401V30.3185H264.743V28.6288C264.743 25.3242 263.786 22.2914 262.048 20.0872C260.009 17.5012 256.958 16.1352 253.226 16.1352ZM256.982 28.1512L247.438 28.5206C247.709 20.6844 249.211 17.4836 252.603 17.4836C253.54 17.4836 254.299 17.7958 254.923 18.437C256.367 19.9209 257.041 23.0989 256.982 28.1512Z" fill="black"/>
<path fill-rule="evenodd" clip-rule="evenodd" d="M49.1216 41.2659V23.6987C49.1216 19.0334 46.446 16.1352 42.1381 16.1352C38.4183 16.1352 34.3767 19.0615 32.1257 20.9817L32.3041 16.1026L20.2279 18.4344V19.5673H20.3949C22.6002 19.5673 23.7956 20.3563 23.7956 24.5203V41.2659C23.7956 43.1851 23.2981 46.4062 19.9712 46.4062H19.8042V47.6948H35.98V46.4062H35.8139C32.7313 46.4062 32.1125 44.4386 32.1125 41.2659V22.1603C33.9355 21.2684 35.4684 20.8339 36.7966 20.8339C39.3807 20.8339 40.8047 22.5245 40.8047 25.5942V41.2659C40.8047 44.8203 39.8906 46.4062 37.8408 46.4062H37.6738V47.6948H52.9908V46.4062H52.8229C49.7412 46.4062 49.1216 44.4386 49.1216 41.2659Z" fill="black"/>
<path fill-rule="evenodd" clip-rule="evenodd" d="M202.433 41.2659V23.6987C202.433 19.0334 199.758 16.1352 195.45 16.1352C191.731 16.1352 187.689 19.0615 185.438 20.9817L185.616 16.1026L173.54 18.4344V19.5673H173.707C175.912 19.5673 177.107 20.3563 177.107 24.5203V41.2659C177.107 43.1851 176.611 46.4062 173.283 46.4062H173.116V47.6948H189.292V46.4062H189.125C186.043 46.4062 185.424 44.4386 185.424 41.2659V22.1603C187.247 21.2684 188.78 20.8339 190.108 20.8339C192.693 20.8339 194.117 22.5245 194.117 25.5942V41.2659C194.117 44.8203 193.202 46.4062 191.153 46.4062H190.986V47.6948H206.303V46.4062H206.135C203.053 46.4062 202.433 44.4386 202.433 41.2659Z" fill="black"/>
<path fill-rule="evenodd" clip-rule="evenodd" d="M294.851 41.2659V23.6987C294.851 19.0334 292.175 16.1352 287.868 16.1352C284.148 16.1352 280.106 19.0615 277.856 20.9817L278.034 16.1026L265.957 18.4344V19.5673H266.125C268.33 19.5673 269.525 20.3563 269.525 24.5203V41.2659C269.525 43.1851 269.028 46.4062 265.7 46.4062H265.533V47.6948H281.71V46.4062H281.543C278.46 46.4062 277.842 44.4386 277.842 41.2659V22.1603C279.665 21.2684 281.197 20.8339 282.526 20.8339C285.111 20.8339 286.535 22.5245 286.535 25.5942V41.2659C286.535 44.8203 285.62 46.4062 283.57 46.4062H283.403V47.6948H298.72V46.4062H298.553C295.47 46.4062 294.851 44.4386 294.851 41.2659Z" fill="black"/>
<path fill-rule="evenodd" clip-rule="evenodd" d="M317.53 42.3663L317.424 42.4929C316.44 43.676 314.913 44.3278 313.126 44.3278C311.539 44.3278 310.591 43.2098 310.591 41.3372V19.57H317.223V17.02H310.591V9.12398H310.179L298.529 19.0695V19.57H302.275V42.7225C302.275 47.5435 306.232 48.2639 308.592 48.2639C313.877 48.2639 316.792 45.5108 318.305 43.201L318.389 43.0735L317.53 42.3663Z" fill="black"/>
<path fill-rule="evenodd" clip-rule="evenodd" d="M345.701 41.2659V16.1026L334.006 18.4353V19.5673H334.173C336.858 19.5673 337.383 19.9332 337.383 24.1385V41.2659C337.383 44.3506 336.837 46.4062 334.173 46.4062H334.006V47.6948H349.078V46.4062H348.911C346.247 46.4062 345.701 44.3506 345.701 41.2659Z" fill="black"/>
<path fill-rule="evenodd" clip-rule="evenodd" d="M341.464 12.4532C344.237 12.4532 346.1 10.5014 346.1 7.59789C346.1 4.69436 344.237 2.74344 341.464 2.74344C338.691 2.74344 336.828 4.69436 336.828 7.59789C336.828 10.5014 338.691 12.4532 341.464 12.4532Z" fill="black"/>
<path fill-rule="evenodd" clip-rule="evenodd" d="M321.223 43.0761C321.223 40.2236 323.507 37.8786 326.272 37.8786C329.097 37.8786 331.322 40.2236 331.322 43.0761C331.322 46.1186 329.097 48.4002 326.272 48.4002C323.507 48.4002 321.223 46.1186 321.223 43.0761Z" fill="black"/>
<path fill-rule="evenodd" clip-rule="evenodd" d="M408.995 17.6287L410.178 22.0073C409.609 23.0593 409.038 24.1007 408.448 25.1562L406.595 18.1485C407.167 18.0993 408.232 17.897 408.995 17.6287ZM404.301 18.4133L406.836 27.9718C406.144 29.0906 405.516 30.2218 404.875 31.3116L401.418 18.335C401.79 18.3975 402.315 18.4265 402.797 18.4432C403.252 18.4591 403.815 18.4591 404.301 18.4133ZM398.748 17.9524L403.048 34.2908C402.357 35.443 401.673 36.568 401.009 37.6438L395.595 17.0139C396.629 17.3833 397.537 17.6859 398.583 17.9163L398.748 17.9524ZM392.437 15.7455L398.956 40.6379C397.962 42.1763 397.056 43.4279 396.324 44.4518L388.262 13.3741C389.54 14.2432 391.162 15.1245 392.437 15.7455ZM411.064 17.1379C411.064 17.1379 412.326 16.6234 413.517 16.049C413.014 16.9576 412.488 18.0131 411.68 19.3712L411.064 17.1379ZM416.949 9.0536C418.514 8.99203 419.845 9.85579 420.26 11.2719C420.544 12.2403 420.417 13.4524 419.979 14.8211L410.833 44.2389L406.272 44.2319L404.076 47.8364C402.224 50.4805 400.602 51.843 397.705 51.843C395.244 51.843 393.262 50.4066 391.178 48.1803C387.568 44.3277 384.49 38.0923 383.117 30.6959C382.064 25.0252 382.349 16.3322 384.649 11.0986L387.408 12.8912C385.874 18.5109 386.503 26.0692 387.691 30.6246C390.404 41.0152 394.381 45.1748 396.49 46.8662C401.469 40.6001 412.711 20.8902 415.972 13.5237C414.179 14.6108 409.18 17.1652 403.386 17.006C396.583 16.8204 390.102 13.3609 382.951 8.1573C383.82 5.6364 385.602 2.43909 387.464 0.317524C395.427 9.12221 400.225 11.7504 406.237 11.7504C408.262 11.7504 410.405 11.2438 411.842 10.7424C413.844 10.0431 415.5 9.0536 416.949 9.0536Z" fill="#006834"/>
</svg>
