<svg width="259" height="64" viewBox="0 0 259 64" fill="none" xmlns="http://www.w3.org/2000/svg">
<rect x="0.392578" width="258" height="64" rx="7.11" fill="#006834"/>
<path d="M15.2928 16.7337H28.6874C30.2452 16.7337 31.6709 16.9212 32.9645 17.2962C34.258 17.6712 35.3708 18.2267 36.3027 18.9629C37.2346 19.6851 37.9579 20.574 38.4725 21.6295C38.9871 22.6851 39.2514 23.8865 39.2653 25.2337C39.2792 26.5948 39.0289 27.8379 38.5142 28.9629C37.9996 30.0879 37.2694 31.0601 36.3235 31.8795C35.3916 32.6851 34.2719 33.317 32.9645 33.7754C31.6709 34.2198 30.2452 34.442 28.6874 34.442H25.1405V42.4212C25.1405 42.9351 25.1823 43.3517 25.2657 43.6712C25.3631 43.9767 25.5578 44.2198 25.8499 44.4004C26.142 44.5809 26.5593 44.7198 27.1017 44.817C27.6581 44.9142 28.3953 45.0115 29.3133 45.1087V46.6087H15.2928V45.1087C16.03 45.0115 16.642 44.9142 17.1288 44.817C17.6296 44.7198 18.026 44.5809 18.3181 44.4004C18.6241 44.2198 18.8397 43.9767 18.9648 43.6712C19.09 43.3517 19.1526 42.9351 19.1526 42.4212V20.9629C19.1526 20.449 19.09 20.0392 18.9648 19.7337C18.8397 19.4142 18.6241 19.1642 18.3181 18.9837C18.026 18.7892 17.6296 18.6434 17.1288 18.5462C16.642 18.4351 16.03 18.3309 15.2928 18.2337V16.7337ZM32.8184 25.317C32.8184 24.317 32.7211 23.4073 32.5263 22.5879C32.3316 21.7684 31.9978 21.067 31.5249 20.4837C31.0519 19.8865 30.4191 19.4281 29.6263 19.1087C28.8334 18.7892 27.8459 18.6295 26.6636 18.6295H25.1405V32.567H26.6636C27.8459 32.567 28.8334 32.3795 29.6263 32.0045C30.4191 31.6295 31.0519 31.1156 31.5249 30.4629C31.9978 29.7962 32.3316 29.0254 32.5263 28.1504C32.7211 27.2615 32.8184 26.317 32.8184 25.317Z" fill="white"/>
<path d="M52.493 46.6087H41.5186V45.1504C42.0611 45.1504 42.4923 45.1087 42.8122 45.0254C43.146 44.9281 43.4033 44.7754 43.5841 44.567C43.765 44.3448 43.8832 44.0531 43.9388 43.692C43.9945 43.3309 44.0223 42.8795 44.0223 42.3379V30.0045C44.0223 29.4351 43.9945 28.9767 43.9388 28.6295C43.8832 28.2684 43.765 27.9906 43.5841 27.7962C43.4033 27.5879 43.146 27.449 42.8122 27.3795C42.4923 27.3101 42.0611 27.2754 41.5186 27.2754V26.2129L49.5929 23.7337L49.5095 29.8379C49.9267 29.1434 50.3927 28.4559 50.9073 27.7754C51.4359 27.0948 51.9853 26.4837 52.5556 25.942C53.1398 25.4004 53.7448 24.9629 54.3707 24.6295C54.9966 24.2962 55.6226 24.1295 56.2485 24.1295C57.0691 24.1295 57.6672 24.3309 58.0428 24.7337C58.4183 25.1365 58.6061 25.6573 58.6061 26.2962C58.6061 26.7267 58.5435 27.1712 58.4183 27.6295C58.307 28.0879 58.1401 28.5392 57.9176 28.9837C57.7089 29.4142 57.4447 29.824 57.1247 30.2129C56.8048 30.5879 56.4432 30.9073 56.0398 31.1712C55.7199 30.4212 55.3861 29.824 55.0384 29.3795C54.6906 28.9212 54.2386 28.692 53.6822 28.692C52.5556 28.692 51.1786 29.5323 49.5512 31.2129V42.3379C49.5512 42.8795 49.579 43.3309 49.6346 43.692C49.7042 44.0531 49.8363 44.3448 50.0311 44.567C50.2397 44.7754 50.5387 44.9281 50.9282 45.0254C51.3177 45.1087 51.8393 45.1504 52.493 45.1504V46.6087Z" fill="white"/>
<path d="M69.643 47.1295C68.5303 47.1295 67.4106 46.9351 66.284 46.5462C65.1573 46.1573 64.135 45.5323 63.217 44.6712C62.3129 43.7962 61.5687 42.6573 60.9846 41.2545C60.4143 39.8518 60.1291 38.1365 60.1291 36.1087C60.1291 34.3031 60.4004 32.6642 60.9428 31.192C61.4853 29.7198 62.2225 28.4559 63.1544 27.4004C64.1002 26.3448 65.199 25.5323 66.4509 24.9629C67.7166 24.3795 69.0658 24.0879 70.4984 24.0879C71.5834 24.0879 72.5501 24.2198 73.3985 24.4837C74.2609 24.7337 75.012 25.074 75.6518 25.5045C76.2916 25.9351 76.841 26.442 77.3 27.0254C77.7591 27.6087 78.1276 28.2267 78.4058 28.8795C78.684 29.5184 78.8857 30.1851 79.0109 30.8795C79.15 31.5601 79.2195 32.2267 79.2195 32.8795V34.1087H65.7624V34.567C65.7624 36.0115 65.9154 37.2892 66.2214 38.4004C66.5413 39.5115 66.9864 40.442 67.5567 41.192C68.1408 41.942 68.8293 42.5115 69.6222 42.9004C70.415 43.2892 71.2913 43.4837 72.251 43.4837C72.9186 43.4837 73.5376 43.4004 74.1079 43.2337C74.6782 43.0531 75.1998 42.8101 75.6727 42.5045C76.1456 42.199 76.5629 41.8448 76.9245 41.442C77.3 41.0254 77.613 40.574 77.8634 40.0879L79.1361 40.7545C78.8579 41.5323 78.4476 42.3031 77.9051 43.067C77.3766 43.8309 76.7159 44.5184 75.923 45.1295C75.1302 45.7267 74.2053 46.2129 73.1482 46.5879C72.105 46.949 70.9366 47.1295 69.643 47.1295ZM70.2481 25.5254C69.7334 25.5254 69.2188 25.6365 68.7042 25.8587C68.2034 26.0809 67.7444 26.4559 67.3272 26.9837C66.9238 27.4976 66.583 28.192 66.3048 29.067C66.0266 29.9281 65.8528 31.0115 65.7832 32.317H73.8784C73.8506 30.1365 73.5515 28.4629 72.9812 27.2962C72.411 26.1156 71.4999 25.5254 70.2481 25.5254Z" fill="white"/>
<path d="M93.2191 46.6087H81.8066V45.1504C82.3491 45.1504 82.7942 45.1087 83.1419 45.0254C83.4896 44.9281 83.7609 44.7754 83.9556 44.567C84.1642 44.3448 84.3033 44.0531 84.3729 43.692C84.4563 43.3309 84.4981 42.8795 84.4981 42.3379V30.0045C84.4981 29.4351 84.4563 28.9767 84.3729 28.6295C84.3033 28.2684 84.1712 27.9906 83.9765 27.7962C83.7817 27.5879 83.5036 27.449 83.1419 27.3795C82.7942 27.3101 82.3491 27.2754 81.8066 27.2754V26.2129L90.0687 23.7337V27.9629C90.4025 27.574 90.8268 27.1573 91.3414 26.7129C91.856 26.2545 92.4333 25.8309 93.0731 25.442C93.7268 25.0392 94.4292 24.7059 95.1803 24.442C95.9453 24.1781 96.7451 24.0462 97.5797 24.0462C98.2195 24.0462 98.8245 24.1295 99.3948 24.2962C99.9651 24.4629 100.48 24.7059 100.939 25.0254C101.398 25.3448 101.787 25.7406 102.107 26.2129C102.441 26.6712 102.684 27.199 102.837 27.7962C103.255 27.3656 103.741 26.9281 104.298 26.4837C104.854 26.0254 105.452 25.6226 106.092 25.2754C106.732 24.9142 107.407 24.6226 108.116 24.4004C108.825 24.1642 109.542 24.0462 110.265 24.0462C111.086 24.0462 111.837 24.1642 112.518 24.4004C113.214 24.6365 113.805 24.9837 114.292 25.442C114.792 25.9004 115.182 26.4629 115.46 27.1295C115.738 27.7962 115.877 28.5601 115.877 29.4212V42.3379C115.877 42.8795 115.905 43.3309 115.961 43.692C116.03 44.0531 116.169 44.3448 116.378 44.567C116.587 44.7754 116.879 44.9281 117.254 45.0254C117.644 45.1087 118.151 45.1504 118.777 45.1504V46.6087H107.845V45.1504C108.373 45.1504 108.797 45.1087 109.117 45.0254C109.451 44.9281 109.708 44.7754 109.889 44.567C110.07 44.3448 110.188 44.0531 110.244 43.692C110.314 43.3309 110.348 42.8795 110.348 42.3379V31.1712C110.348 30.4767 110.251 29.8934 110.056 29.4212C109.861 28.949 109.604 28.574 109.284 28.2962C108.978 28.0045 108.624 27.7962 108.22 27.6712C107.817 27.5462 107.407 27.4837 106.989 27.4837C106.614 27.4837 106.238 27.5254 105.863 27.6087C105.487 27.692 105.118 27.8031 104.757 27.942C104.409 28.0809 104.082 28.2406 103.776 28.4212C103.47 28.5879 103.199 28.7615 102.963 28.942V42.3379C102.963 42.8795 102.997 43.3309 103.067 43.692C103.136 44.0531 103.269 44.3448 103.463 44.567C103.672 44.7754 103.964 44.9281 104.34 45.0254C104.729 45.1087 105.237 45.1504 105.863 45.1504V46.6087H94.93V45.1504C95.4724 45.1504 95.9036 45.1087 96.2235 45.0254C96.5573 44.9281 96.8147 44.7754 96.9955 44.567C97.1763 44.3448 97.2945 44.0531 97.3502 43.692C97.4197 43.3309 97.4545 42.8795 97.4545 42.3379V31.1712C97.4545 30.4767 97.3571 29.8934 97.1624 29.4212C96.9677 28.949 96.7103 28.574 96.3904 28.2962C96.0705 28.0045 95.7089 27.7962 95.3055 27.6712C94.9021 27.5462 94.4918 27.4837 94.0745 27.4837C93.699 27.4837 93.3235 27.5254 92.9479 27.6087C92.5724 27.692 92.2107 27.8031 91.863 27.942C91.5292 28.0809 91.2093 28.2406 90.9033 28.4212C90.5972 28.5879 90.3191 28.7615 90.0687 28.942V42.3379C90.0687 42.8795 90.0965 43.3309 90.1522 43.692C90.2217 44.0531 90.3677 44.3448 90.5903 44.567C90.8128 44.7754 91.1258 44.9281 91.5292 45.0254C91.9464 45.1087 92.5098 45.1504 93.2191 45.1504V46.6087Z" fill="white"/>
<path d="M126.163 20.5045C125.704 20.5045 125.28 20.4212 124.89 20.2545C124.501 20.0879 124.16 19.8656 123.868 19.5879C123.59 19.3101 123.367 18.9837 123.2 18.6087C123.047 18.2337 122.971 17.8379 122.971 17.4212C122.971 17.0045 123.047 16.6156 123.2 16.2545C123.367 15.8795 123.59 15.5531 123.868 15.2754C124.16 14.9837 124.501 14.7615 124.89 14.6087C125.28 14.442 125.704 14.3587 126.163 14.3587C126.566 14.3587 126.949 14.442 127.311 14.6087C127.686 14.7615 128.013 14.9837 128.291 15.2754C128.569 15.5531 128.792 15.8795 128.959 16.2545C129.126 16.6156 129.209 17.0045 129.209 17.4212C129.209 17.8379 129.126 18.2337 128.959 18.6087C128.792 18.9837 128.569 19.3101 128.291 19.5879C128.013 19.8656 127.686 20.0879 127.311 20.2545C126.949 20.4212 126.566 20.5045 126.163 20.5045ZM123.472 30.0045C123.472 29.4351 123.444 28.9767 123.388 28.6295C123.333 28.2684 123.214 27.9906 123.034 27.7962C122.853 27.5879 122.595 27.449 122.262 27.3795C121.942 27.3101 121.51 27.2754 120.968 27.2754V26.2129L128.959 23.7337V42.3379C128.959 42.8795 128.987 43.3309 129.042 43.692C129.098 44.0531 129.216 44.3448 129.397 44.567C129.578 44.7754 129.828 44.9281 130.148 45.0254C130.482 45.1087 130.92 45.1504 131.462 45.1504V46.6087H120.968V45.1504C121.51 45.1504 121.942 45.1087 122.262 45.0254C122.595 44.9281 122.853 44.7754 123.034 44.567C123.214 44.3448 123.333 44.0531 123.388 43.692C123.444 43.3309 123.472 42.8795 123.472 42.3379V30.0045Z" fill="white"/>
<path d="M148.842 43.0254C148.508 43.5115 148.112 44.0045 147.653 44.5045C147.194 44.9906 146.672 45.4281 146.088 45.817C145.504 46.2059 144.85 46.5184 144.127 46.7545C143.404 47.0045 142.597 47.1295 141.707 47.1295C140.886 47.1295 140.128 46.9906 139.432 46.7129C138.737 46.449 138.132 46.074 137.617 45.5879C137.103 45.0879 136.699 44.4906 136.407 43.7962C136.129 43.0879 135.99 42.3031 135.99 41.442V30.0045C135.99 29.4351 135.955 28.9767 135.886 28.6295C135.83 28.2684 135.712 27.9906 135.531 27.7962C135.364 27.5879 135.114 27.449 134.78 27.3795C134.446 27.3101 134.008 27.2754 133.465 27.2754V26.2129L141.498 23.7337V40.4629C141.498 41.0601 141.581 41.574 141.748 42.0045C141.915 42.4212 142.138 42.7615 142.416 43.0254C142.708 43.2892 143.035 43.4837 143.397 43.6087C143.772 43.7337 144.162 43.7962 144.565 43.7962C145.302 43.7962 146.053 43.6087 146.818 43.2337C147.583 42.8587 148.258 42.3795 148.842 41.7962V30.0045C148.842 29.4351 148.814 28.9767 148.759 28.6295C148.703 28.2684 148.585 27.9906 148.404 27.7962C148.223 27.5879 147.966 27.449 147.632 27.3795C147.298 27.3101 146.86 27.2754 146.318 27.2754V26.2129L154.35 23.7337V41.9212C154.35 42.574 154.385 43.1017 154.454 43.5045C154.524 43.8934 154.649 44.199 154.83 44.4212C155.011 44.6295 155.261 44.7684 155.581 44.8379C155.915 44.9073 156.346 44.942 156.875 44.942V46.2337L148.759 47.0254L148.842 43.0254Z" fill="white"/>
<path d="M170.54 46.6087H159.128V45.1504C159.67 45.1504 160.115 45.1087 160.463 45.0254C160.811 44.9281 161.082 44.7754 161.277 44.567C161.486 44.3448 161.625 44.0531 161.694 43.692C161.778 43.3309 161.819 42.8795 161.819 42.3379V30.0045C161.819 29.4351 161.778 28.9767 161.694 28.6295C161.625 28.2684 161.492 27.9906 161.298 27.7962C161.103 27.5879 160.825 27.449 160.463 27.3795C160.115 27.3101 159.67 27.2754 159.128 27.2754V26.2129L167.39 23.7337V27.9629C167.724 27.574 168.148 27.1573 168.663 26.7129C169.177 26.2545 169.755 25.8309 170.394 25.442C171.048 25.0392 171.751 24.7059 172.502 24.442C173.267 24.1781 174.066 24.0462 174.901 24.0462C175.541 24.0462 176.146 24.1295 176.716 24.2962C177.286 24.4629 177.801 24.7059 178.26 25.0254C178.719 25.3448 179.108 25.7406 179.428 26.2129C179.762 26.6712 180.006 27.199 180.159 27.7962C180.576 27.3656 181.063 26.9281 181.619 26.4837C182.175 26.0254 182.774 25.6226 183.413 25.2754C184.053 24.9142 184.728 24.6226 185.437 24.4004C186.147 24.1642 186.863 24.0462 187.586 24.0462C188.407 24.0462 189.158 24.1642 189.839 24.4004C190.535 24.6365 191.126 24.9837 191.613 25.442C192.114 25.9004 192.503 26.4629 192.781 27.1295C193.059 27.7962 193.198 28.5601 193.198 29.4212V42.3379C193.198 42.8795 193.226 43.3309 193.282 43.692C193.352 44.0531 193.491 44.3448 193.699 44.567C193.908 44.7754 194.2 44.9281 194.576 45.0254C194.965 45.1087 195.473 45.1504 196.099 45.1504V46.6087H185.166V45.1504C185.694 45.1504 186.119 45.1087 186.439 45.0254C186.772 44.9281 187.03 44.7754 187.211 44.567C187.391 44.3448 187.51 44.0531 187.565 43.692C187.635 43.3309 187.67 42.8795 187.67 42.3379V31.1712C187.67 30.4767 187.572 29.8934 187.377 29.4212C187.183 28.949 186.925 28.574 186.606 28.2962C186.3 28.0045 185.945 27.7962 185.541 27.6712C185.138 27.5462 184.728 27.4837 184.311 27.4837C183.935 27.4837 183.559 27.5254 183.184 27.6087C182.808 27.692 182.44 27.8031 182.078 27.942C181.73 28.0809 181.403 28.2406 181.097 28.4212C180.791 28.5879 180.52 28.7615 180.284 28.942V42.3379C180.284 42.8795 180.319 43.3309 180.388 43.692C180.458 44.0531 180.59 44.3448 180.785 44.567C180.993 44.7754 181.285 44.9281 181.661 45.0254C182.05 45.1087 182.558 45.1504 183.184 45.1504V46.6087H172.251V45.1504C172.794 45.1504 173.225 45.1087 173.545 45.0254C173.879 44.9281 174.136 44.7754 174.317 44.567C174.498 44.3448 174.616 44.0531 174.671 43.692C174.741 43.3309 174.776 42.8795 174.776 42.3379V31.1712C174.776 30.4767 174.678 29.8934 174.484 29.4212C174.289 28.949 174.032 28.574 173.712 28.2962C173.392 28.0045 173.03 27.7962 172.627 27.6712C172.223 27.5462 171.813 27.4837 171.396 27.4837C171.02 27.4837 170.645 27.5254 170.269 27.6087C169.894 27.692 169.532 27.8031 169.184 27.942C168.85 28.0809 168.531 28.2406 168.225 28.4212C167.919 28.5879 167.64 28.7615 167.39 28.942V42.3379C167.39 42.8795 167.418 43.3309 167.473 43.692C167.543 44.0531 167.689 44.3448 167.912 44.567C168.134 44.7754 168.447 44.9281 168.85 45.0254C169.268 45.1087 169.831 45.1504 170.54 45.1504V46.6087Z" fill="white"/>
<path d="M233.834 25.0015L234.835 28.6273C234.353 29.4984 233.87 30.3608 233.371 31.2349L231.803 25.432C232.287 25.3912 233.188 25.2237 233.834 25.0015ZM229.863 25.6512L232.007 33.5663C231.422 34.4928 230.891 35.4295 230.348 36.3319L227.423 25.5864C227.738 25.6381 228.182 25.6622 228.59 25.676C228.975 25.6891 229.452 25.6891 229.863 25.6512ZM225.165 25.2696L228.802 38.7989C228.218 39.753 227.639 40.6846 227.077 41.5754L222.497 24.4924C223.372 24.7983 224.14 25.0489 225.025 25.2397L225.165 25.2696ZM219.826 23.4421L225.34 44.0547C224.5 45.3286 223.733 46.3651 223.114 47.2129L216.293 21.4785C217.375 22.1981 218.747 22.9279 219.826 23.4421ZM235.584 24.5951C235.584 24.5951 236.652 24.169 237.66 23.6934C237.234 24.4458 236.789 25.3198 236.105 26.4444L235.584 24.5951ZM240.563 17.9007C241.887 17.8498 243.013 18.565 243.364 19.7377C243.604 20.5396 243.497 21.5433 243.126 22.6766L235.389 47.0366L231.53 47.0308L229.672 50.0156C228.106 52.2051 226.733 53.3333 224.282 53.3333C222.201 53.3333 220.523 52.1439 218.761 50.3004C215.707 47.1102 213.102 41.9469 211.941 35.8221C211.05 31.1263 211.291 23.9279 213.237 19.5942L215.57 21.0786C214.273 25.7321 214.805 31.9909 215.811 35.7631C218.106 44.3672 221.47 47.8116 223.254 49.2123C227.467 44.0234 236.977 27.7023 239.736 21.6023C238.219 22.5025 233.99 24.6177 229.088 24.4859C223.333 24.3322 217.85 21.4675 211.8 17.1585C212.536 15.0711 214.043 12.4235 215.618 10.6667C222.355 17.9576 226.414 20.1339 231.5 20.1339C233.214 20.1339 235.027 19.7144 236.242 19.2992C237.936 18.7202 239.337 17.9007 240.563 17.9007Z" fill="white"/>
</svg>
