<svg width="1258" height="228" viewBox="0 0 1258 228" xmlns="http://www.w3.org/2000/svg"><g id="Page-1" fill="none" fill-rule="evenodd"><g id="Mediahuis-Kleur" fill-rule="nonzero"><g id="Group-4" transform="translate(256.848 54.75)" fill="#FF261F"><path id="Fill-5-Copy" d="M62.71 87.375h-.49L31.64 1.68H0V117.96h24.12V38.418l.498-.082 29.744 79.624H70.72l29.75-79.463.503.073v79.39h24.124V1.68H93.618L62.709 87.376"/><path id="Fill-6-Copy" d="M188.3 66.845h44.613V48.883H188.3v-29.24h52.88V1.681h-77.008V117.96h77.165v-17.894H188.3v-33.22"/><path d="M343.62 69.486c0 8.94-2.423 16.273-7.27 21.998-4.85 5.726-11.24 8.582-19.173 8.582h-17.849V19.648h17.849c7.934 0 14.323 2.851 19.174 8.545 4.846 5.698 7.268 12.985 7.268 21.88v19.413zM317.176 1.68H275.2V117.96h41.977c14.708 0 26.822-4.514 36.357-13.536 9.525-9.028 14.295-20.672 14.295-34.938V50.237c0-14.215-4.77-25.864-14.295-34.942C344 6.217 331.885 1.68 317.177 1.68z" id="Fill-7-Copy"/><path id="Fill-8-Copy" d="M402.357 117.96h24.134V1.67h-24.134z"/><path d="M498.44 74.596l13.388-40.967h.494l13.307 40.967H498.44zm1.326-72.92l-40.576 116.28h25.207l8.086-25.08h39.008l8.19 25.08h25.194L524.47 1.675h-24.704z" id="Fill-9-Copy"/><path id="Fill-10-Copy" d="M672.526 56.308h-68.33V1.676h-9.924v116.28h9.924V64.443h68.33v53.511h9.91V1.676h-9.91v54.632"/><path d="M804.805 78.908c0 10.06-3.14 18.022-9.42 23.872-6.286 5.868-14.324 8.793-24.135 8.793-9.582 0-17.449-2.943-23.592-8.83-6.138-5.877-9.211-13.825-9.211-23.835V1.676h-9.91v77.232c0 12.728 3.976 22.687 11.934 29.905 7.962 7.218 18.223 10.827 30.78 10.827 12.727 0 23.135-3.6 31.235-10.785 8.096-7.186 12.148-17.169 12.148-29.947V1.676h-9.83v77.232" id="Fill-11-Copy"/><path id="Fill-12-Copy" d="M863.115 117.96h9.915V1.67h-9.915z"/><path d="M991.1 68.765c-6.675-5.22-16.334-9.61-29.004-13.178-12.18-3.297-20.68-6.856-25.487-10.667-4.837-3.792-7.245-8.664-7.245-14.564 0-6.236 2.66-11.484 7.981-15.777 5.311-4.284 12.646-6.429 22.02-6.429 9.088 0 16.518 2.526 22.27 7.586 5.754 5.06 8.638 11.42 8.638 19.087h9.245l.17-.477c.22-9.96-3.396-18.174-10.831-24.648C981.422 3.238 971.593 0 959.365 0c-11.625 0-21.18 2.86-28.68 8.586-7.483 5.726-11.231 13.032-11.231 21.921 0 8.733 3.349 15.644 10.043 20.731 6.684 5.079 16.456 9.33 29.297 12.733 11.72 3.416 20.048 7.057 24.942 10.942 4.907 3.894 7.363 8.816 7.363 14.78 0 6.443-2.902 11.696-8.684 15.773-5.786 4.068-13.273 6.107-22.466 6.107-8.984 0-16.97-2.204-23.977-6.598-6.984-4.385-10.485-11.075-10.485-20.075h-9.173l-.162.473c-.285 11.185 3.986 19.694 12.803 25.52 8.813 5.832 19.14 8.747 30.994 8.747 11.834 0 21.658-2.755 29.45-8.265 7.796-5.51 11.696-12.797 11.696-21.842 0-8.628-3.335-15.552-9.996-20.768" id="Fill-13-Copy"/></g><g id="Group"><path id="Fill-1-Copy" fill="#FF261F" d="M194.138 56.768L97.059 0v113.543z"/><path id="Fill-2-Copy" fill="#EBEBEB" d="M97.06 113.543L.003 56.768v113.555l97.055-56.78 97.079 56.78V56.768l-97.079 56.775"/><path id="Fill-3-Copy" fill="#FF8A17" d="M0 56.768l97.056 56.772V0L0 56.768"/><path id="Fill-4-Copy" fill="#BEBEBE" d="M0 170.33l97.056 56.768 97.086-56.768-97.086-56.79L0 170.33"/></g></g></g></svg>